Coordinates
version=1
nRows=18
nColumns=26
inDegrees=yes

Units are S.I. units (second, meters, Newtons, ...)
Angles are in degrees.

endheader
time	pelvis_tilt	pelvis_list	pelvis_rotation	pelvis_tx	pelvis_ty	pelvis_tz	hip_flexion_r	hip_adduction_r	hip_rotation_r	knee_angle_r	knee_angle_r_beta	ankle_angle_r	subtalar_angle_r	mtp_angle_r	hip_flexion_l	hip_adduction_l	hip_rotation_l	knee_angle_l	knee_angle_l_beta	ankle_angle_l	subtalar_angle_l	mtp_angle_l	lumbar_extension	lumbar_bending	lumbar_rotation
     49.90979592	    -20.38205858	     -2.56864890	      9.55906878	      0.10227819	      0.91646412	      0.19594608	     39.50907335	     -1.83617612	     -6.79399663	     11.23941672	     11.23941672	      2.34599695	      0.82388907	      0.00000000	     -1.99060170	     -0.19331507	     10.90927930	     27.35717600	     27.35717600	    -18.93553914	     -3.57401145	      0.00000000	      8.57269282	      0.57045388	    -16.85732853
     49.91979592	    -19.47648284	     -2.45635129	      9.37789537	      0.10271285	      0.91561730	      0.19673979	     38.06982676	     -1.52618143	     -6.90731455	      9.11617699	      9.11617699	      3.34134348	      3.07891806	      0.00000000	     -1.88825321	     -0.08989761	     10.55718863	     32.87599987	     32.87599987	    -17.45258790	     -3.52874498	      0.00000000	      7.42838022	      0.72549432	    -16.32533576
     49.92979592	    -18.63137802	     -2.55869305	      8.89869622	      0.10283993	      0.91369496	      0.19777795	     36.85135305	     -0.87001292	     -6.58168279	      7.82079305	      7.82079305	      4.33506523	      5.02070593	      0.00000000	     -1.48443057	     -0.16170582	      9.92902834	     38.73347183	     38.73347183	    -16.12392932	     -3.70909041	      0.00000000	      6.36374667	      1.19023727	    -15.52699579
     49.93979592	    -17.81619044	     -2.67520543	      8.04007918	      0.10277821	      0.91065246	      0.19891361	     35.86142440	     -0.03046527	     -5.80184625	      7.44060388	      7.44060388	      4.95638767	      6.19790794	      0.00000000	     -0.99294784	     -0.15466289	      9.05899227	     44.68874230	     44.68874230	    -14.99569346	     -4.50741731	      0.00000000	      5.28969563	      1.75458666	    -14.37777744
     49.94979592	    -17.04119981	     -2.81825045	      7.06924690	      0.10250635	      0.90652060	      0.19991047	     35.08479966	      0.82776386	     -5.14036298	      7.96123862	      7.96123862	      5.24783911	      6.74753705	      0.00000000	     -0.30037259	     -0.19408946	      8.00780671	     50.81585638	     50.81585638	    -13.77969581	     -5.06326718	      0.00000000	      4.25666800	      2.37344633	    -13.05767259
     49.95979592	    -16.51233517	     -2.93886807	      6.01679345	      0.10189701	      0.90116319	      0.20068085	     34.59832964	      1.64411545	     -4.12545265	      9.11702618	      9.11702618	      6.02585987	      6.91477075	      0.00000000	      0.78362347	     -0.14111672	      6.99956680	     57.02098632	     57.02098632	    -12.58414459	     -5.57717273	      0.00000000	      3.47005542	      2.98338780	    -11.64257707
     49.96979592	    -16.03223182	     -3.02883384	      4.87805741	      0.10099495	      0.89498231	      0.20147562	     34.27369732	      2.45357117	     -2.91287354	     10.99748425	     10.99748425	      6.01975718	      6.17660319	      0.00000000	      1.98754976	     -0.08766407	      5.87701200	     63.10711301	     63.10711301	    -11.91763129	     -6.59840911	      0.00000000	      2.69653383	      3.54073824	    -10.07907629
     49.97979592	    -15.75304742	     -3.32714629	      3.76612075	      0.09965829	      0.88784462	      0.20241607	     34.36407809	      3.41299029	     -2.17109595	     13.71282736	     13.71282736	      3.65028603	      3.52509103	      0.00000000	      3.60673726	     -0.41839617	      4.68551146	     69.22865331	     69.22865331	    -11.36018619	     -7.50470069	      0.00000000	      2.12264191	      4.26370538	     -8.51743413
     49.98979592	    -15.83272924	     -3.89010046	      2.69496579	      0.09779553	      0.87949466	      0.20385064	     34.98004707	      4.77493907	     -1.29506228	     17.25327077	     17.25327077	      1.40199827	     -0.96455427	      0.00000000	      5.82594342	     -1.31231876	      3.44268520	     75.41165344	     75.41165344	    -10.76625300	     -8.36892521	      0.00000000	      1.91616125	      5.17464037	     -7.02545232
     49.99979592	    -16.32111217	     -4.80845115	      1.52802155	      0.09481693	      0.87033929	      0.20632893	     36.48840342	      6.97432574	      0.31572261	     22.33448508	     22.33448508	      3.97607928	     -4.93810896	      0.00000000	      8.73565930	     -2.93963539	      2.23966540	     81.65882833	     81.65882833	     -9.84025726	     -8.73776708	      0.00000000	      2.00925092	      6.33060460	     -5.35107579
     50.00979592	    -16.97701584	     -5.39091517	      0.48369607	      0.09077382	      0.86059576	      0.20852727	     39.29730673	      8.60318447	      0.54617507	     29.63625660	     29.63625660	      7.89059429	     -7.09795205	      0.00000000	     12.00830411	     -4.24744220	      1.36492333	     87.77105528	     87.77105528	     -8.74252356	     -9.25868320	      0.00000000	      2.12253652	      7.10435145	     -3.67368726
     50.01979592	    -16.92332712	     -5.86932297	     -0.29265894	      0.08681642	      0.85211093	      0.21028097	     41.13040502	      9.90798115	      0.77724638	     36.40832300	     36.40832300	     10.77495419	     -8.39429330	      0.00000000	     14.61340692	     -5.39851366	      0.96831630	     93.38748045	     93.38748045	     -7.49301784	     -9.61186987	      0.00000000	      1.33263962	      7.75824110	     -1.97471037
     50.02979592	    -16.44976581	     -6.16424482	     -0.61031558	      0.08323557	      0.84526856	      0.21122078	     41.32424967	     10.66073421	      1.08319639	     41.20143556	     41.20143556	     13.89839835	     -8.47080489	      0.00000000	     16.99237144	     -6.10726036	      1.21172004	     98.41308784	     98.41308784	     -6.38005689	     -9.99294540	      0.00000000	      0.07051389	      8.15312161	     -0.60580234
     50.03979592	    -16.02936463	     -6.22644302	     -0.58306778	      0.07991012	      0.83973549	      0.21160407	     40.43991352	     10.88909507	      1.30045625	     44.05014534	     44.05014534	     17.22524641	     -7.97939576	      0.00000000	     19.68181375	     -6.33951212	      1.90572645	    102.84228268	    102.84228268	     -5.15130839	    -10.17212915	      0.00000000	     -1.04514690	      8.21564680	      0.37142972
     50.04979592	    -16.06827201	     -6.33894292	     -0.22048191	      0.07633145	      0.83512081	      0.21137958	     39.41657309	     10.85134995	      0.98569557	     45.69264388	     45.69264388	     20.22081309	     -7.33825254	      0.00000000	     23.21928732	     -6.34286927	      3.09100345	    106.77387482	    106.77387482	     -4.11556250	    -10.38453812	      0.00000000	     -1.53988690	      8.32624393	      0.91395704
     50.05979592	    -16.01497943	     -6.66916680	      0.12553855	      0.07341026	      0.83206216	      0.21110708	     37.77401433	     11.07520799	      0.67429774	     46.41615902	     46.41615902	     22.59426804	     -7.14969231	      0.00000000	     26.70554137	     -6.52507067	      4.28230537	    109.93131422	    109.93131422	     -3.15230357	    -10.72585808	      0.00000000	     -2.04325607	      8.67099887	      1.78532949
     50.06979592	    -16.91963621	     -7.32425835	      0.54814671	      0.07056161	      0.82917702	      0.21032202	     37.01020884	     11.31225763	     -0.15974989	     46.79036027	     46.79036027	     24.39612565	     -6.02743408	      0.00000000	     31.46517441	     -6.75381045	      5.93602193	    112.56425640	    112.56425640	     -1.90729479	    -10.14045516	      0.00000000	     -1.21533232	      9.44876230	      2.32951354
     50.07979592	    -17.47740685	     -7.90794336	      0.57259730	      0.06885278	      0.82869104	      0.20994015	     35.24372745	     11.83180189	     -0.30763774	     46.17423396	     46.17423396	     25.60085447	     -5.17830100	      0.00000000	     35.50803762	     -7.04553550	      7.03987870	    114.04998877	    114.04998877	     -1.10784280	    -10.14253225	      0.00000000	     -0.65727597	     10.07868381	      3.60964191
